<?xml version="1.0" encoding="UTF-8" standalone="no"?>
<!DOCTYPE svg PUBLIC "-//W3C//DTD SVG 1.1//EN"
 "http://www.w3.org/Graphics/SVG/1.1/DTD/svg11.dtd">
<!-- Generated by graphviz version 2.38.0 (20140413.2041)
 -->
<!-- Title: %3 Pages: 1 -->
<svg width="459pt" height="159pt"
 viewBox="0.00 0.00 459.00 159.00" xmlns="http://www.w3.org/2000/svg" xmlns:xlink="http://www.w3.org/1999/xlink">
<g id="graph0" class="graph" transform="scale(1 1) rotate(0) translate(4 155)">
<title>%3</title>
<polygon fill="#c0ffee" stroke="none" points="-4,4 -4,-155 455,-155 455,4 -4,4"/>
<text text-anchor="middle" x="225.5" y="-10.8" font-family="Times New Roman,serif" font-size="24.00" fill="#444444">國產車市場</text>
<!-- A -->
<g id="node1" class="node"><title>A</title>
<polygon fill="#ffc0ee" stroke="gray" points="62,-93 0,-93 0,-57 62,-57 62,-93"/>
<text text-anchor="middle" x="31" y="-71.3" font-family="Consolas" font-size="14.00" fill="blue">Nissan</text>
</g>
<!-- B -->
<g id="node2" class="node"><title>B</title>
<polygon fill="#ffc0ee" stroke="gray" points="272,-124 210,-124 210,-88 272,-88 272,-124"/>
<text text-anchor="middle" x="241" y="-102.3" font-family="Consolas" font-size="14.00" fill="blue">Toyota</text>
</g>
<!-- A&#45;&gt;B -->
<g id="edge1" class="edge"><title>A&#45;&gt;B</title>
<path fill="none" stroke="black" d="M62.245,-79.5077C98.5224,-84.9144 159.468,-93.9976 199.71,-99.9952"/>
<polygon fill="black" stroke="black" points="199.312,-103.474 209.719,-101.487 200.344,-96.5509 199.312,-103.474"/>
<text text-anchor="middle" x="136" y="-101.8" font-family="Times New Roman,serif" font-size="14.00">japan popular brand</text>
</g>
<!-- C -->
<g id="node3" class="node"><title>C</title>
<polygon fill="#ffc0ee" stroke="gray" points="268,-70 214,-70 214,-34 268,-34 268,-70"/>
<text text-anchor="middle" x="241" y="-48.3" font-family="Consolas" font-size="14.00" fill="blue">Lexus</text>
</g>
<!-- A&#45;&gt;C -->
<g id="edge2" class="edge"><title>A&#45;&gt;C</title>
<path fill="none" stroke="black" d="M62.2265,-65.0543C68.0685,-63.4545 74.1823,-61.9986 80,-61 121.881,-53.8112 170.74,-51.9968 203.344,-51.7027"/>
<polygon fill="black" stroke="black" points="203.76,-55.2009 213.744,-51.6557 203.728,-48.201 203.76,-55.2009"/>
<text text-anchor="middle" x="136" y="-64.8" font-family="Times New Roman,serif" font-size="14.00">same company</text>
</g>
<!-- D -->
<g id="node4" class="node"><title>D</title>
<polygon fill="#ffc0ee" stroke="gray" points="447,-151 393,-151 393,-115 447,-115 447,-151"/>
<text text-anchor="middle" x="420" y="-129.3" font-family="Consolas" font-size="14.00" fill="blue">Ford</text>
</g>
<!-- B&#45;&gt;D -->
<g id="edge3" class="edge"><title>B&#45;&gt;D</title>
<path fill="none" stroke="black" d="M272.026,-110.58C302.641,-115.25 350.156,-122.498 382.826,-127.482"/>
<polygon fill="black" stroke="black" points="382.458,-130.966 392.871,-129.014 383.513,-124.046 382.458,-130.966"/>
<text text-anchor="middle" x="330.5" y="-128.8" font-family="Times New Roman,serif" font-size="14.00">F1 racer</text>
</g>
<!-- E -->
<g id="node5" class="node"><title>E</title>
<polygon fill="#ffc0ee" stroke="gray" points="451,-97 389,-97 389,-61 451,-61 451,-97"/>
<text text-anchor="middle" x="420" y="-75.3" font-family="Consolas" font-size="14.00" fill="blue">Luxgen</text>
</g>
<!-- B&#45;&gt;E -->
<g id="edge4" class="edge"><title>B&#45;&gt;E</title>
<path fill="none" stroke="black" d="M272.085,-97.8474C277.994,-96.4251 284.169,-95.0633 290,-94 319.535,-88.6143 353.245,-84.7731 378.797,-82.3267"/>
<polygon fill="black" stroke="black" points="379.227,-85.802 388.861,-81.3946 378.581,-78.8318 379.227,-85.802"/>
<text text-anchor="middle" x="330.5" y="-97.8" font-family="Times New Roman,serif" font-size="14.00">electric gadget</text>
</g>
</g>
</svg>
