<?xml version="1.0" encoding="UTF-8" standalone="no"?>
<!DOCTYPE svg PUBLIC "-//W3C//DTD SVG 1.1//EN"
 "http://www.w3.org/Graphics/SVG/1.1/DTD/svg11.dtd">
<!-- Generated by graphviz version 2.38.0 (20140413.2041)
 -->
<!-- Title: %3 Pages: 1 -->
<svg width="255pt" height="404pt"
 viewBox="0.00 0.00 254.93 404.00" xmlns="http://www.w3.org/2000/svg" xmlns:xlink="http://www.w3.org/1999/xlink">
<g id="graph0" class="graph" transform="scale(1 1) rotate(0) translate(4 400)">
<title>%3</title>
<polygon fill="white" stroke="none" points="-4,4 -4,-400 250.93,-400 250.93,4 -4,4"/>
<!-- A -->
<g id="node1" class="node"><title>A</title>
<ellipse fill="none" stroke="black" cx="123" cy="-378" rx="27" ry="18"/>
<text text-anchor="middle" x="123" y="-374.3" font-family="Times New Roman,serif" font-size="14.00">A</text>
</g>
<!-- B -->
<g id="node2" class="node"><title>B</title>
<ellipse fill="none" stroke="black" cx="123" cy="-306" rx="27" ry="18"/>
<text text-anchor="middle" x="123" y="-302.3" font-family="Times New Roman,serif" font-size="14.00">B</text>
</g>
<!-- A&#45;&gt;B -->
<g id="edge1" class="edge"><title>A&#45;&gt;B</title>
<path fill="none" stroke="black" d="M123,-359.697C123,-351.983 123,-342.712 123,-334.112"/>
<polygon fill="black" stroke="black" points="126.5,-334.104 123,-324.104 119.5,-334.104 126.5,-334.104"/>
</g>
<!-- C -->
<g id="node3" class="node"><title>C</title>
<ellipse fill="none" stroke="black" cx="207" cy="-234" rx="27" ry="18"/>
<text text-anchor="middle" x="207" y="-230.3" font-family="Times New Roman,serif" font-size="14.00">C</text>
</g>
<!-- A&#45;&gt;C -->
<g id="edge2" class="edge"><title>A&#45;&gt;C</title>
<path fill="none" stroke="black" d="M134.14,-361.505C141.48,-351.081 151.149,-336.931 159,-324 171.684,-303.108 184.768,-278.618 194.065,-260.622"/>
<polygon fill="black" stroke="black" points="197.368,-261.852 198.815,-251.356 191.139,-258.659 197.368,-261.852"/>
</g>
<!-- D -->
<g id="node4" class="node"><title>D</title>
<ellipse fill="none" stroke="black" cx="207" cy="-162" rx="27" ry="18"/>
<text text-anchor="middle" x="207" y="-158.3" font-family="Times New Roman,serif" font-size="14.00">D</text>
</g>
<!-- A&#45;&gt;D -->
<g id="edge3" class="edge"><title>A&#45;&gt;D</title>
<path fill="none" stroke="black" d="M142.085,-364.913C170.872,-345.353 224.048,-303.687 243,-252 248.508,-236.978 247.703,-231.293 243,-216 239.714,-205.315 233.46,-194.851 227.075,-186.081"/>
<polygon fill="black" stroke="black" points="229.646,-183.686 220.75,-177.931 224.116,-187.977 229.646,-183.686"/>
</g>
<!-- E -->
<g id="node5" class="node"><title>E</title>
<ellipse fill="none" stroke="black" cx="141" cy="-90" rx="27" ry="18"/>
<text text-anchor="middle" x="141" y="-86.3" font-family="Times New Roman,serif" font-size="14.00">E</text>
</g>
<!-- A&#45;&gt;E -->
<g id="edge4" class="edge"><title>A&#45;&gt;E</title>
<path fill="none" stroke="black" d="M109.25,-362.069C101.039,-352.1 91.381,-338.247 87,-324 82.2972,-308.707 84.8661,-303.857 87,-288 95.4304,-225.355 118.299,-154.443 131.414,-117.145"/>
<polygon fill="black" stroke="black" points="134.773,-118.146 134.834,-107.551 128.179,-115.795 134.773,-118.146"/>
</g>
<!-- F -->
<g id="node6" class="node"><title>F</title>
<ellipse fill="none" stroke="black" cx="141" cy="-18" rx="27" ry="18"/>
<text text-anchor="middle" x="141" y="-14.3" font-family="Times New Roman,serif" font-size="14.00">F</text>
</g>
<!-- A&#45;&gt;F -->
<g id="edge5" class="edge"><title>A&#45;&gt;F</title>
<path fill="none" stroke="black" d="M102.689,-365.908C67.7536,-345.172 0,-296.969 0,-235 0,-235 0,-235 0,-161 0,-99.1163 68.2636,-54.6023 109.795,-33.2467"/>
<polygon fill="black" stroke="black" points="111.576,-36.2698 118.969,-28.6805 108.457,-30.0032 111.576,-36.2698"/>
</g>
<!-- B&#45;&gt;C -->
<g id="edge6" class="edge"><title>B&#45;&gt;C</title>
<path fill="none" stroke="black" d="M139.196,-291.503C151.63,-281.142 168.991,-266.674 183.032,-254.973"/>
<polygon fill="black" stroke="black" points="185.412,-257.546 190.854,-248.455 180.931,-252.168 185.412,-257.546"/>
</g>
<!-- B&#45;&gt;D -->
<g id="edge7" class="edge"><title>B&#45;&gt;D</title>
<path fill="none" stroke="black" d="M131.185,-288.644C140.373,-270.575 155.968,-240.76 171,-216 176.888,-206.302 183.799,-195.918 189.983,-186.934"/>
<polygon fill="black" stroke="black" points="193.018,-188.701 195.86,-178.495 187.273,-184.701 193.018,-188.701"/>
</g>
<!-- B&#45;&gt;E -->
<g id="edge8" class="edge"><title>B&#45;&gt;E</title>
<path fill="none" stroke="black" d="M124.443,-287.849C127.556,-250.832 134.929,-163.181 138.696,-118.386"/>
<polygon fill="black" stroke="black" points="142.2,-118.491 139.551,-108.232 135.225,-117.904 142.2,-118.491"/>
</g>
<!-- B&#45;&gt;F -->
<g id="edge9" class="edge"><title>B&#45;&gt;F</title>
<path fill="none" stroke="black" d="M117.545,-288.151C105.797,-249.131 81.0306,-149.947 105,-72 108.286,-61.3149 114.54,-50.851 120.925,-42.0814"/>
<polygon fill="black" stroke="black" points="123.884,-43.9774 127.25,-33.9312 118.354,-39.6861 123.884,-43.9774"/>
</g>
<!-- C&#45;&gt;D -->
<g id="edge10" class="edge"><title>C&#45;&gt;D</title>
<path fill="none" stroke="black" d="M207,-215.697C207,-207.983 207,-198.712 207,-190.112"/>
<polygon fill="black" stroke="black" points="210.5,-190.104 207,-180.104 203.5,-190.104 210.5,-190.104"/>
</g>
<!-- C&#45;&gt;E -->
<g id="edge11" class="edge"><title>C&#45;&gt;E</title>
<path fill="none" stroke="black" d="M194.781,-217.458C187.182,-207.246 177.629,-193.35 171,-180 161.058,-159.979 153.161,-135.877 147.97,-117.807"/>
<polygon fill="black" stroke="black" points="151.278,-116.641 145.231,-107.942 144.533,-118.514 151.278,-116.641"/>
</g>
<!-- C&#45;&gt;F -->
<g id="edge12" class="edge"><title>C&#45;&gt;F</title>
<path fill="none" stroke="black" d="M220.75,-218.069C228.961,-208.1 238.619,-194.247 243,-180 247.703,-164.707 247.411,-159.38 243,-144 230.319,-99.7834 191.931,-60.8557 166.038,-38.6278"/>
<polygon fill="black" stroke="black" points="168.037,-35.7371 158.118,-32.0122 163.549,-41.1094 168.037,-35.7371"/>
</g>
<!-- D&#45;&gt;E -->
<g id="edge13" class="edge"><title>D&#45;&gt;E</title>
<path fill="none" stroke="black" d="M193.003,-146.155C183.99,-136.596 172.109,-123.994 161.978,-113.249"/>
<polygon fill="black" stroke="black" points="164.383,-110.699 154.977,-105.824 159.29,-115.501 164.383,-110.699"/>
</g>
<!-- D&#45;&gt;F -->
<g id="edge14" class="edge"><title>D&#45;&gt;F</title>
<path fill="none" stroke="black" d="M202.769,-144.058C197.86,-125.74 188.893,-95.9509 177,-72 172.028,-61.9875 165.412,-51.6682 159.208,-42.826"/>
<polygon fill="black" stroke="black" points="161.914,-40.595 153.219,-34.5423 156.242,-44.6966 161.914,-40.595"/>
</g>
<!-- E&#45;&gt;F -->
<g id="edge15" class="edge"><title>E&#45;&gt;F</title>
<path fill="none" stroke="black" d="M141,-71.6966C141,-63.9827 141,-54.7125 141,-46.1124"/>
<polygon fill="black" stroke="black" points="144.5,-46.1043 141,-36.1043 137.5,-46.1044 144.5,-46.1043"/>
</g>
</g>
</svg>
