<?xml version="1.0" encoding="UTF-8" standalone="no"?>
<!DOCTYPE svg PUBLIC "-//W3C//DTD SVG 1.1//EN"
 "http://www.w3.org/Graphics/SVG/1.1/DTD/svg11.dtd">
<!-- Generated by graphviz version 2.38.0 (20140413.2041)
 -->
<!-- Title: %3 Pages: 1 -->
<svg width="493pt" height="159pt"
 viewBox="0.00 0.00 492.68 159.00" xmlns="http://www.w3.org/2000/svg" xmlns:xlink="http://www.w3.org/1999/xlink">
<g id="graph0" class="graph" transform="scale(1 1) rotate(0) translate(4 155)">
<title>%3</title>
<polygon fill="#c0ffee" stroke="none" points="-4,4 -4,-155 488.681,-155 488.681,4 -4,4"/>
<text text-anchor="middle" x="242.34" y="-10.8" font-family="Times New Roman,serif" font-size="24.00" fill="#444444">國產車市場</text>
<!-- A -->
<g id="node1" class="node"><title>A</title>
<ellipse fill="none" stroke="black" cx="35.0969" cy="-75" rx="35.194" ry="18"/>
<text text-anchor="middle" x="35.0969" y="-71.3" font-family="Times New Roman,serif" font-size="14.00">Nissan</text>
</g>
<!-- B -->
<g id="node2" class="node"><title>B</title>
<ellipse fill="none" stroke="black" cx="255.24" cy="-106" rx="37.0935" ry="18"/>
<text text-anchor="middle" x="255.24" y="-102.3" font-family="Times New Roman,serif" font-size="14.00">Toyota</text>
</g>
<!-- A&#45;&gt;B -->
<g id="edge1" class="edge"><title>A&#45;&gt;B</title>
<path fill="none" stroke="black" d="M69.2282,-79.7082C106.587,-85.0172 167.541,-93.6793 209.201,-99.5995"/>
<polygon fill="black" stroke="black" points="208.958,-103.1 219.351,-101.042 209.943,-96.1697 208.958,-103.1"/>
<text text-anchor="middle" x="144.194" y="-100.8" font-family="Times New Roman,serif" font-size="14.00">japan popular brand</text>
</g>
<!-- C -->
<g id="node3" class="node"><title>C</title>
<ellipse fill="none" stroke="black" cx="255.24" cy="-52" rx="32.4942" ry="18"/>
<text text-anchor="middle" x="255.24" y="-48.3" font-family="Times New Roman,serif" font-size="14.00">Lexus</text>
</g>
<!-- A&#45;&gt;C -->
<g id="edge2" class="edge"><title>A&#45;&gt;C</title>
<path fill="none" stroke="black" d="M65.6197,-65.9222C72.933,-63.9916 80.7951,-62.1814 88.1938,-61 129.996,-54.3252 178.387,-52.3441 212.105,-51.8696"/>
<polygon fill="black" stroke="black" points="212.546,-55.3654 222.51,-51.7644 212.475,-48.3658 212.546,-55.3654"/>
<text text-anchor="middle" x="144.194" y="-64.8" font-family="Times New Roman,serif" font-size="14.00">same company</text>
</g>
<!-- D -->
<g id="node4" class="node"><title>D</title>
<ellipse fill="none" stroke="black" cx="446.984" cy="-133" rx="28.6953" ry="18"/>
<text text-anchor="middle" x="446.984" y="-129.3" font-family="Times New Roman,serif" font-size="14.00">Ford</text>
</g>
<!-- B&#45;&gt;D -->
<g id="edge3" class="edge"><title>B&#45;&gt;D</title>
<path fill="none" stroke="black" d="M291.042,-110.952C324.396,-115.698 374.576,-122.839 408.726,-127.698"/>
<polygon fill="black" stroke="black" points="408.38,-131.184 418.773,-129.128 409.366,-124.254 408.38,-131.184"/>
<text text-anchor="middle" x="350.787" y="-128.8" font-family="Times New Roman,serif" font-size="14.00">F1 racer</text>
</g>
<!-- E -->
<g id="node5" class="node"><title>E</title>
<ellipse fill="none" stroke="black" cx="446.984" cy="-79" rx="37.8943" ry="18"/>
<text text-anchor="middle" x="446.984" y="-75.3" font-family="Times New Roman,serif" font-size="14.00">Luxgen</text>
</g>
<!-- B&#45;&gt;E -->
<g id="edge4" class="edge"><title>B&#45;&gt;E</title>
<path fill="none" stroke="black" d="M288.71,-98.1923C295.794,-96.6567 303.27,-95.1633 310.287,-94 339.806,-89.1062 373.21,-85.3913 399.489,-82.8827"/>
<polygon fill="black" stroke="black" points="399.919,-86.3579 409.552,-81.9475 399.271,-79.3879 399.919,-86.3579"/>
<text text-anchor="middle" x="350.787" y="-97.8" font-family="Times New Roman,serif" font-size="14.00">electric gadget</text>
</g>
</g>
</svg>
