<?xml version="1.0" encoding="UTF-8" standalone="no"?>
<!DOCTYPE svg PUBLIC "-//W3C//DTD SVG 1.1//EN"
 "http://www.w3.org/Graphics/SVG/1.1/DTD/svg11.dtd">
<!-- Generated by graphviz version 2.38.0 (20140413.2041)
 -->
<!-- Title: %3 Pages: 1 -->
<svg width="388pt" height="404pt"
 viewBox="0.00 0.00 388.00 404.00" xmlns="http://www.w3.org/2000/svg" xmlns:xlink="http://www.w3.org/1999/xlink">
<g id="graph0" class="graph" transform="scale(1 1) rotate(0) translate(4 400)">
<title>%3</title>
<polygon fill="white" stroke="none" points="-4,4 -4,-400 384,-400 384,4 -4,4"/>
<!-- A -->
<g id="node1" class="node"><title>A</title>
<ellipse fill="none" stroke="black" cx="205" cy="-378" rx="27" ry="18"/>
<text text-anchor="middle" x="205" y="-374.3" font-family="Times New Roman,serif" font-size="14.00">A</text>
</g>
<!-- B -->
<g id="node2" class="node"><title>B</title>
<ellipse fill="none" stroke="black" cx="205" cy="-306" rx="27" ry="18"/>
<text text-anchor="middle" x="205" y="-302.3" font-family="Times New Roman,serif" font-size="14.00">B</text>
</g>
<!-- A&#45;&#45;B -->
<g id="edge1" class="edge"><title>A&#45;&#45;B</title>
<path fill="none" stroke="black" d="M199.16,-360.411C197.96,-349.414 197.947,-335.027 199.121,-323.956"/>
</g>
<!-- C -->
<g id="node3" class="node"><title>C</title>
<ellipse fill="none" stroke="black" cx="177" cy="-18" rx="27" ry="18"/>
<text text-anchor="middle" x="177" y="-14.3" font-family="Times New Roman,serif" font-size="14.00">C</text>
</g>
<!-- A&#45;&#45;C -->
<g id="edge2" class="edge"><title>A&#45;&#45;C</title>
<path fill="none" stroke="black" d="M179.172,-372.322C123.853,-359.802 0,-320.51 0,-235 0,-235 0,-235 0,-161 0,-84.4296 103.052,-40.6958 152.059,-25.3319"/>
</g>
<!-- D -->
<g id="node4" class="node"><title>D</title>
<ellipse fill="none" stroke="black" cx="177" cy="-90" rx="27" ry="18"/>
<text text-anchor="middle" x="177" y="-86.3" font-family="Times New Roman,serif" font-size="14.00">D</text>
</g>
<!-- A&#45;&#45;D -->
<g id="edge3" class="edge"><title>A&#45;&#45;D</title>
<path fill="none" stroke="black" d="M186.085,-364.651C175.811,-354.578 164.773,-339.523 160,-324 135.969,-245.851 154.843,-145.961 168.296,-107.296"/>
</g>
<!-- E -->
<g id="node5" class="node"><title>E</title>
<ellipse fill="none" stroke="black" cx="241" cy="-162" rx="27" ry="18"/>
<text text-anchor="middle" x="241" y="-158.3" font-family="Times New Roman,serif" font-size="14.00">E</text>
</g>
<!-- A&#45;&#45;E -->
<g id="edge4" class="edge"><title>A&#45;&#45;E</title>
<path fill="none" stroke="black" d="M211.951,-360.126C218.626,-350.292 227.419,-337.245 232,-324 249.268,-274.074 241.039,-210.112 239.17,-180.052"/>
</g>
<!-- F -->
<g id="node6" class="node"><title>F</title>
<ellipse fill="none" stroke="black" cx="353" cy="-234" rx="27" ry="18"/>
<text text-anchor="middle" x="353" y="-230.3" font-family="Times New Roman,serif" font-size="14.00">F</text>
</g>
<!-- A&#45;&#45;F -->
<g id="edge5" class="edge"><title>A&#45;&#45;F</title>
<path fill="none" stroke="black" d="M227.826,-368.241C249.63,-360.082 281.758,-345.85 303,-324 323.278,-303.142 334.759,-270.439 342.83,-251.021"/>
</g>
<!-- B&#45;&#45;A -->
<g id="edge6" class="edge"><title>B&#45;&#45;A</title>
<path fill="none" stroke="black" d="M210.879,-323.956C212.053,-335.027 212.04,-349.414 210.84,-360.411"/>
</g>
<!-- B&#45;&#45;C -->
<g id="edge7" class="edge"><title>B&#45;&#45;C</title>
<path fill="none" stroke="black" d="M193.236,-289.581C175.007,-256.911 143.081,-177.971 132,-108 129.497,-92.1969 127.297,-87.2933 132,-72 136.773,-56.4773 147.811,-41.4216 158.085,-31.3491"/>
</g>
<!-- B&#45;&#45;D -->
<g id="edge8" class="edge"><title>B&#45;&#45;D</title>
<path fill="none" stroke="black" d="M198.96,-288.208C189.87,-248.302 176.757,-148.134 175.362,-108.01"/>
</g>
<!-- B&#45;&#45;E -->
<g id="edge9" class="edge"><title>B&#45;&#45;E</title>
<path fill="none" stroke="black" d="M204.758,-287.871C208.836,-260.283 222.533,-206.37 232.368,-179.312"/>
</g>
<!-- B&#45;&#45;F -->
<g id="edge10" class="edge"><title>B&#45;&#45;F</title>
<path fill="none" stroke="black" d="M224.58,-293.284C251.954,-279.272 301.028,-256.15 330.07,-243.656"/>
</g>
<!-- C&#45;&#45;A -->
<g id="edge11" class="edge"><title>C&#45;&#45;A</title>
<path fill="none" stroke="black" d="M154.23,-28.1175C110.055,-45.5933 18,-88.6305 18,-161 18,-235 18,-235 18,-235 18,-316.098 129.401,-355.625 180.375,-370.168"/>
</g>
<!-- C&#45;&#45;B -->
<g id="edge12" class="edge"><title>C&#45;&#45;B</title>
<path fill="none" stroke="black" d="M169.692,-35.7574C162.905,-45.5552 154.119,-58.6037 150,-72 145.297,-87.2933 147.497,-92.1969 150,-108 160.912,-176.906 192.039,-254.509 202.56,-288.057"/>
</g>
<!-- C&#45;&#45;D -->
<g id="edge13" class="edge"><title>C&#45;&#45;D</title>
<path fill="none" stroke="black" d="M182.879,-35.9562C184.053,-47.0274 184.04,-61.4141 182.84,-72.411"/>
</g>
<!-- C&#45;&#45;E -->
<g id="edge14" class="edge"><title>C&#45;&#45;E</title>
<path fill="none" stroke="black" d="M194.64,-31.8501C204.211,-42.199 214.925,-57.3819 222,-72 233.572,-95.9117 241.809,-125.712 243.868,-144.043"/>
</g>
<!-- C&#45;&#45;F -->
<g id="edge15" class="edge"><title>C&#45;&#45;F</title>
<path fill="none" stroke="black" d="M198.448,-29.1933C231.173,-48.2874 292.315,-92.2247 327,-144 342.247,-166.76 352.38,-197.154 355.247,-215.885"/>
</g>
<!-- D&#45;&#45;A -->
<g id="edge16" class="edge"><title>D&#45;&#45;A</title>
<path fill="none" stroke="black" d="M177.348,-108.168C172.565,-147.443 154.147,-246.432 178,-324 182.119,-337.396 190.905,-350.445 197.692,-360.243"/>
</g>
<!-- D&#45;&#45;B -->
<g id="edge17" class="edge"><title>D&#45;&#45;B</title>
<path fill="none" stroke="black" d="M183.006,-107.641C192.086,-147.397 205.211,-247.581 206.633,-287.849"/>
</g>
<!-- D&#45;&#45;C -->
<g id="edge18" class="edge"><title>D&#45;&#45;C</title>
<path fill="none" stroke="black" d="M171.16,-72.411C169.96,-61.4141 169.947,-47.0274 171.121,-35.9562"/>
</g>
<!-- D&#45;&#45;E -->
<g id="edge19" class="edge"><title>D&#45;&#45;E</title>
<path fill="none" stroke="black" d="M194.623,-104.331C206.762,-115.835 222.109,-132.487 231.957,-144.765"/>
</g>
<!-- D&#45;&#45;F -->
<g id="edge20" class="edge"><title>D&#45;&#45;F</title>
<path fill="none" stroke="black" d="M201.231,-98.0071C224.809,-106.786 260.09,-123.231 286,-144 312.635,-165.349 337.042,-197.007 348.131,-216.249"/>
</g>
<!-- E&#45;&#45;A -->
<g id="edge21" class="edge"><title>E&#45;&#45;A</title>
<path fill="none" stroke="black" d="M249.637,-179.109C258.862,-208.757 267.451,-273.546 250,-324 244.692,-339.348 233.729,-354.428 223.618,-364.554"/>
</g>
<!-- E&#45;&#45;B -->
<g id="edge22" class="edge"><title>E&#45;&#45;B</title>
<path fill="none" stroke="black" d="M241.198,-180.425C237.065,-208.109 223.424,-261.757 213.624,-288.711"/>
</g>
<!-- E&#45;&#45;C -->
<g id="edge23" class="edge"><title>E&#45;&#45;C</title>
<path fill="none" stroke="black" d="M230.972,-145.037C224.109,-126.804 215.784,-96.3491 204,-72 197.798,-59.1841 188.798,-45.9341 182.473,-35.8881"/>
</g>
<!-- E&#45;&#45;D -->
<g id="edge24" class="edge"><title>E&#45;&#45;D</title>
<path fill="none" stroke="black" d="M223.551,-147.834C211.326,-136.269 195.789,-119.41 185.9,-107.057"/>
</g>
<!-- E&#45;&#45;F -->
<g id="edge25" class="edge"><title>E&#45;&#45;F</title>
<path fill="none" stroke="black" d="M262.381,-173.272C284.184,-185.511 317.13,-205.995 336.863,-219.503"/>
</g>
<!-- F&#45;&#45;A -->
<g id="edge26" class="edge"><title>F&#45;&#45;A</title>
<path fill="none" stroke="black" d="M355.315,-252.055C352.354,-271.582 340.922,-303.508 321,-324 296.29,-349.417 256.849,-364.526 230.7,-371.758"/>
</g>
<!-- F&#45;&#45;B -->
<g id="edge27" class="edge"><title>F&#45;&#45;B</title>
<path fill="none" stroke="black" d="M333.58,-246.635C306.288,-260.612 257.207,-283.742 228.089,-296.276"/>
</g>
<!-- F&#45;&#45;C -->
<g id="edge28" class="edge"><title>F&#45;&#45;C</title>
<path fill="none" stroke="black" d="M342.621,-217.227C334.868,-198.632 324.617,-167.312 309,-144 276.409,-95.3502 220.459,-53.6208 192.826,-32.9192"/>
</g>
<!-- F&#45;&#45;D -->
<g id="edge29" class="edge"><title>F&#45;&#45;D</title>
<path fill="none" stroke="black" d="M337.472,-218.91C321.361,-200.045 295.903,-166.366 268,-144 245.769,-126.181 216.64,-111.544 197.195,-102.202"/>
</g>
<!-- F&#45;&#45;E -->
<g id="edge30" class="edge"><title>F&#45;&#45;E</title>
<path fill="none" stroke="black" d="M331.786,-222.821C310.016,-210.612 277.016,-190.099 257.223,-176.556"/>
</g>
</g>
</svg>
