<?xml version="1.0" encoding="UTF-8" standalone="no"?>
<!DOCTYPE svg PUBLIC "-//W3C//DTD SVG 1.1//EN"
 "http://www.w3.org/Graphics/SVG/1.1/DTD/svg11.dtd">
<!-- Generated by graphviz version 2.38.0 (20140413.2041)
 -->
<!-- Title: %3 Pages: 1 -->
<svg width="134pt" height="204pt"
 viewBox="0.00 0.00 134.00 204.00" xmlns="http://www.w3.org/2000/svg" xmlns:xlink="http://www.w3.org/1999/xlink">
<g id="graph0" class="graph" transform="scale(1 1) rotate(0) translate(4 200)">
<title>%3</title>
<polygon fill="white" stroke="none" points="-4,4 -4,-200 130,-200 130,4 -4,4"/>
<!-- A -->
<g id="node1" class="node"><title>A</title>
<ellipse fill="none" stroke="black" cx="48" cy="-178" rx="27" ry="18"/>
<text text-anchor="middle" x="48" y="-174.3" font-family="Times New Roman,serif" font-size="14.00">A</text>
</g>
<!-- A&#45;&gt;A -->
<g id="edge1" class="edge"><title>A&#45;&gt;A</title>
<path fill="none" stroke="black" d="M74.7949,-181.929C84.7804,-182.058 93,-180.748 93,-178 93,-176.282 89.7892,-175.127 84.9433,-174.533"/>
<polygon fill="black" stroke="black" points="84.9437,-171.03 74.7949,-174.071 84.6253,-178.022 84.9437,-171.03"/>
</g>
<!-- A&#45;&gt;A -->
<g id="edge2" class="edge"><title>A&#45;&gt;A</title>
<path fill="none" stroke="black" d="M73.2292,-184.944C92.0405,-187.37 111,-185.055 111,-178 111,-172.213 98.2419,-169.615 83.2732,-170.207"/>
<polygon fill="black" stroke="black" points="82.8992,-166.726 73.2292,-171.056 83.4882,-173.702 82.8992,-166.726"/>
</g>
<!-- B -->
<g id="node2" class="node"><title>B</title>
<ellipse fill="none" stroke="black" cx="27" cy="-91" rx="27" ry="18"/>
<text text-anchor="middle" x="27" y="-87.3" font-family="Times New Roman,serif" font-size="14.00">B</text>
</g>
<!-- A&#45;&gt;B -->
<g id="edge5" class="edge"><title>A&#45;&gt;B</title>
<path fill="none" stroke="black" d="M38.6386,-161.012C34.3341,-149.209 29.9874,-132.863 27.3446,-119.042"/>
<polygon fill="black" stroke="black" points="30.7812,-118.371 25.6847,-109.083 23.8764,-119.522 30.7812,-118.371"/>
</g>
<!-- D -->
<g id="node4" class="node"><title>D</title>
<ellipse fill="none" stroke="black" cx="99" cy="-91" rx="27" ry="18"/>
<text text-anchor="middle" x="99" y="-87.3" font-family="Times New Roman,serif" font-size="14.00">D</text>
</g>
<!-- A&#45;&gt;D -->
<g id="edge3" class="edge"><title>A&#45;&gt;D</title>
<path fill="none" stroke="black" d="M57.5927,-161.012C65.0723,-148.546 75.592,-131.013 84.1563,-116.739"/>
<polygon fill="black" stroke="black" points="87.3065,-118.292 89.4503,-107.916 81.3041,-114.69 87.3065,-118.292"/>
</g>
<!-- B&#45;&gt;A -->
<g id="edge6" class="edge"><title>B&#45;&gt;A</title>
<path fill="none" stroke="black" d="M38.1526,-107.636C41.6767,-113.438 45.1362,-120.254 47,-127 49.0117,-134.281 49.7715,-142.388 49.8981,-149.918"/>
<polygon fill="black" stroke="black" points="46.3966,-149.974 49.7198,-160.034 53.3956,-150.097 46.3966,-149.974"/>
<text text-anchor="middle" x="54" y="-130.8" font-family="Times New Roman,serif" font-size="14.00">D</text>
</g>
<!-- B&#45;&gt;A -->
<g id="edge7" class="edge"><title>B&#45;&gt;A</title>
<path fill="none" stroke="black" d="M36.375,-108.025C40.6648,-119.798 44.9946,-136.074 47.6364,-149.859"/>
<polygon fill="black" stroke="black" points="44.1972,-150.513 49.299,-159.799 51.1013,-149.359 44.1972,-150.513"/>
</g>
<!-- C -->
<g id="node3" class="node"><title>C</title>
<ellipse fill="none" stroke="black" cx="27" cy="-18" rx="27" ry="18"/>
<text text-anchor="middle" x="27" y="-14.3" font-family="Times New Roman,serif" font-size="14.00">C</text>
</g>
<!-- B&#45;&gt;C -->
<g id="edge8" class="edge"><title>B&#45;&gt;C</title>
<path fill="none" stroke="black" d="M27,-72.8129C27,-64.7895 27,-55.0475 27,-46.0691"/>
<polygon fill="black" stroke="black" points="30.5001,-46.0288 27,-36.0288 23.5001,-46.0289 30.5001,-46.0288"/>
</g>
<!-- C&#45;&gt;C -->
<g id="edge4" class="edge"><title>C&#45;&gt;C</title>
<path fill="none" stroke="black" d="M52.4435,-24.6907C63.0278,-25.1521 72,-22.9219 72,-18 72,-14.77 68.136,-12.6992 62.4881,-11.7876"/>
<polygon fill="black" stroke="black" points="62.5987,-8.28904 52.4435,-11.3093 62.2656,-15.2811 62.5987,-8.28904"/>
</g>
</g>
</svg>
