<?xml version="1.0" encoding="UTF-8" standalone="no"?>
<!DOCTYPE svg PUBLIC "-//W3C//DTD SVG 1.1//EN"
 "http://www.w3.org/Graphics/SVG/1.1/DTD/svg11.dtd">
<!-- Generated by graphviz version 2.38.0 (20140413.2041)
 -->
<!-- Title: %3 Pages: 1 -->
<svg width="286pt" height="218pt"
 viewBox="0.00 0.00 285.60 218.00" xmlns="http://www.w3.org/2000/svg" xmlns:xlink="http://www.w3.org/1999/xlink">
<g id="graph0" class="graph" transform="scale(1 1) rotate(0) translate(4 214)">
<title>%3</title>
<polygon fill="white" stroke="none" points="-4,4 -4,-214 281.597,-214 281.597,4 -4,4"/>
<!-- A -->
<g id="node1" class="node"><title>A</title>
<ellipse fill="none" stroke="black" cx="137.597" cy="-192" rx="35.194" ry="18"/>
<text text-anchor="middle" x="137.597" y="-188.3" font-family="Times New Roman,serif" font-size="14.00">Nissan</text>
</g>
<!-- B -->
<g id="node2" class="node"><title>B</title>
<ellipse fill="none" stroke="black" cx="70.5975" cy="-105" rx="37.0935" ry="18"/>
<text text-anchor="middle" x="70.5975" y="-101.3" font-family="Times New Roman,serif" font-size="14.00">Toyota</text>
</g>
<!-- A&#45;&gt;B -->
<g id="edge1" class="edge"><title>A&#45;&gt;B</title>
<path fill="none" stroke="black" d="M107.387,-182.68C94.0191,-177.345 79.5498,-168.924 71.5975,-156 67.4215,-149.213 66.1113,-140.866 66.1488,-132.949"/>
<polygon fill="black" stroke="black" points="69.6413,-133.178 66.8467,-122.958 62.6583,-132.69 69.6413,-133.178"/>
<text text-anchor="middle" x="127.597" y="-144.8" font-family="Times New Roman,serif" font-size="14.00">japan popular brand</text>
</g>
<!-- C -->
<g id="node3" class="node"><title>C</title>
<ellipse fill="none" stroke="black" cx="205.597" cy="-105" rx="32.4942" ry="18"/>
<text text-anchor="middle" x="205.597" y="-101.3" font-family="Times New Roman,serif" font-size="14.00">Lexus</text>
</g>
<!-- A&#45;&gt;C -->
<g id="edge2" class="edge"><title>A&#45;&gt;C</title>
<path fill="none" stroke="black" d="M159.687,-177.638C167.995,-171.791 177.013,-164.354 183.597,-156 189.106,-149.01 193.533,-140.426 196.93,-132.356"/>
<polygon fill="black" stroke="black" points="200.24,-133.498 200.567,-122.908 193.708,-130.983 200.24,-133.498"/>
<text text-anchor="middle" x="235.097" y="-144.8" font-family="Times New Roman,serif" font-size="14.00">same company</text>
</g>
<!-- D -->
<g id="node4" class="node"><title>D</title>
<ellipse fill="none" stroke="black" cx="28.5975" cy="-18" rx="28.6953" ry="18"/>
<text text-anchor="middle" x="28.5975" y="-14.3" font-family="Times New Roman,serif" font-size="14.00">Ford</text>
</g>
<!-- B&#45;&gt;D -->
<g id="edge3" class="edge"><title>B&#45;&gt;D</title>
<path fill="none" stroke="black" d="M56.3633,-88.1062C51.7938,-82.388 47.0321,-75.6907 43.5975,-69 39.9553,-61.905 37.0446,-53.7796 34.793,-46.1706"/>
<polygon fill="black" stroke="black" points="38.1041,-45.0059 32.1242,-36.26 31.3449,-46.8261 38.1041,-45.0059"/>
<text text-anchor="middle" x="67.0975" y="-57.8" font-family="Times New Roman,serif" font-size="14.00">F1 racer</text>
</g>
<!-- E -->
<g id="node5" class="node"><title>E</title>
<ellipse fill="none" stroke="black" cx="112.597" cy="-18" rx="37.8943" ry="18"/>
<text text-anchor="middle" x="112.597" y="-14.3" font-family="Times New Roman,serif" font-size="14.00">Luxgen</text>
</g>
<!-- B&#45;&gt;E -->
<g id="edge4" class="edge"><title>B&#45;&gt;E</title>
<path fill="none" stroke="black" d="M80.5213,-87.4593C83.8564,-81.6892 87.5108,-75.1247 90.5975,-69 94.4388,-61.378 98.2983,-52.9354 101.688,-45.1912"/>
<polygon fill="black" stroke="black" points="104.962,-46.4393 105.695,-35.8698 98.5305,-43.675 104.962,-46.4393"/>
<text text-anchor="middle" x="139.097" y="-57.8" font-family="Times New Roman,serif" font-size="14.00">electric gadget</text>
</g>
</g>
</svg>
