<?xml version="1.0" encoding="UTF-8" standalone="no"?>
<!DOCTYPE svg PUBLIC "-//W3C//DTD SVG 1.1//EN"
 "http://www.w3.org/Graphics/SVG/1.1/DTD/svg11.dtd">
<!-- Generated by graphviz version 2.38.0 (20140413.2041)
 -->
<!-- Title: %3 Pages: 1 -->
<svg width="751pt" height="162pt"
 viewBox="0.00 0.00 751.00 162.00" xmlns="http://www.w3.org/2000/svg" xmlns:xlink="http://www.w3.org/1999/xlink">
<g id="graph0" class="graph" transform="scale(1 1) rotate(0) translate(4 158)">
<title>%3</title>
<polygon fill="#c0ffee" stroke="none" points="-4,4 -4,-158 747,-158 747,4 -4,4"/>
<text text-anchor="middle" x="371.5" y="-10.8" font-family="Times New Roman,serif" font-size="24.00" fill="#444444">國產車市場</text>
<!-- A -->
<g id="node1" class="node"><title>A</title>
<polygon fill="#ffc0ee" stroke="gray" points="62,-95 0,-95 0,-59 62,-59 62,-95"/>
<text text-anchor="middle" x="31" y="-73.3" font-family="Consolas" font-size="14.00" fill="blue">Nissan</text>
</g>
<!-- B -->
<g id="node2" class="node"><title>B</title>
<polygon fill="#ffc0ee" stroke="gray" points="431,-124 369,-124 369,-88 431,-88 431,-124"/>
<text text-anchor="middle" x="400" y="-102.3" font-family="Consolas" font-size="14.00" fill="blue">Toyota</text>
</g>
<!-- A&#45;&gt;B -->
<g id="edge1" class="edge"><title>A&#45;&gt;B</title>
<path fill="none" stroke="#004466" stroke-dasharray="1,5" d="M62.2124,-79.5405C68.1108,-80.0301 74.2488,-80.535 80,-81 180.03,-89.0875 297.738,-98.2102 358.361,-102.88"/>
<polygon fill="#004466" stroke="#004466" points="368.647,-103.671 358.331,-107.391 363.662,-103.288 358.677,-102.904 358.677,-102.904 358.677,-102.904 363.662,-103.288 359.022,-98.4171 368.647,-103.671 368.647,-103.671"/>
<text text-anchor="middle" x="215.5" y="-107.8" font-family="Courier,monospace" font-size="24.00" fill="#880000">japan popular brand</text>
</g>
<!-- C -->
<g id="node3" class="node"><title>C</title>
<polygon fill="#ffc0ee" stroke="gray" points="427,-70 373,-70 373,-34 427,-34 427,-70"/>
<text text-anchor="middle" x="400" y="-48.3" font-family="Consolas" font-size="14.00" fill="blue">Lexus</text>
</g>
<!-- A&#45;&gt;C -->
<g id="edge2" class="edge"><title>A&#45;&gt;C</title>
<path fill="none" stroke="#004466" stroke-dasharray="1,5" d="M62.0556,-60.9196C67.8611,-58.4823 74.0056,-56.3378 80,-55 180.456,-32.5801 303.173,-41.1304 362.89,-47.5008"/>
<polygon fill="#004466" stroke="#004466" points="372.947,-48.6175 362.511,-51.9863 367.977,-48.0657 363.008,-47.5138 363.008,-47.5138 363.008,-47.5138 367.977,-48.0657 363.505,-43.0413 372.947,-48.6175 372.947,-48.6175"/>
<text text-anchor="middle" x="215.5" y="-61.8" font-family="Courier,monospace" font-size="24.00" fill="#880000">same company</text>
</g>
<!-- D -->
<g id="node4" class="node"><title>D</title>
<polygon fill="#ffc0ee" stroke="gray" points="739,-151 685,-151 685,-115 739,-115 739,-151"/>
<text text-anchor="middle" x="712" y="-129.3" font-family="Consolas" font-size="14.00" fill="blue">Ford</text>
</g>
<!-- B&#45;&gt;D -->
<g id="edge3" class="edge"><title>B&#45;&gt;D</title>
<path fill="none" stroke="#004466" stroke-dasharray="1,5" d="M431.006,-108.613C488.318,-113.605 613.141,-124.477 674.903,-129.856"/>
<polygon fill="#004466" stroke="#004466" points="684.964,-130.732 674.611,-134.348 679.983,-130.298 675.002,-129.865 675.002,-129.865 675.002,-129.865 679.983,-130.298 675.392,-125.382 684.964,-130.732 684.964,-130.732"/>
<text text-anchor="middle" x="556" y="-134.8" font-family="Courier,monospace" font-size="24.00" fill="#880000">F1 racer</text>
</g>
<!-- E -->
<g id="node5" class="node"><title>E</title>
<polygon fill="#ffc0ee" stroke="gray" points="743,-97 681,-97 681,-61 743,-61 743,-97"/>
<text text-anchor="middle" x="712" y="-75.3" font-family="Consolas" font-size="14.00" fill="blue">Luxgen</text>
</g>
<!-- B&#45;&gt;E -->
<g id="edge4" class="edge"><title>B&#45;&gt;E</title>
<path fill="none" stroke="#004466" stroke-dasharray="1,5" d="M428.983,-87.8936C435.328,-84.6407 442.205,-81.7359 449,-80 525.483,-60.461 618.673,-66.9537 670.77,-73.1632"/>
<polygon fill="#004466" stroke="#004466" points="680.934,-74.434 670.453,-77.6585 675.973,-73.8136 671.011,-73.1932 671.011,-73.1932 671.011,-73.1932 675.973,-73.8136 671.57,-68.728 680.934,-74.434 680.934,-74.434"/>
<text text-anchor="middle" x="556" y="-86.8" font-family="Courier,monospace" font-size="24.00" fill="#880000">electric gadget</text>
</g>
</g>
</svg>
